<?xml version="1.0" encoding="UTF-8"?>
<svg xmlns="http://www.w3.org/2000/svg" viewBox="0 0 2000 2000">
  <defs>
    <style>
      .cls-1 {
        fill: #031162;
      }

      .cls-1, .cls-2, .cls-3, .cls-4, .cls-5, .cls-6, .cls-7, .cls-8, .cls-9, .cls-10, .cls-11, .cls-12, .cls-13, .cls-14, .cls-15, .cls-16, .cls-17, .cls-18 {
        stroke-width: 0px;
      }

      .cls-19 {
        font-family: SourceSansRoman-Bold, 'Source Sans Variable';
        font-size: 36px;
        font-variation-settings: 'wght' 700;
        font-weight: 700;
      }

      .cls-19, .cls-10, .cls-20 {
        fill: #fff;
      }

      .cls-2 {
        fill: #00a9ff;
      }

      .cls-3 {
        fill: #4f5569;
      }

      .cls-4 {
        fill: #ffcb30;
      }

      .cls-21 {
        isolation: isolate;
      }

      .cls-22 {
        letter-spacing: -.04em;
      }

      .cls-5 {
        fill: #1957c2;
      }

      .cls-6 {
        fill: #d1c8ce;
      }

      .cls-7 {
        fill: #0c97b3;
      }

      .cls-23 {
        letter-spacing: 0em;
      }

      .cls-8 {
        fill: #2c4b80;
      }

      .cls-9 {
        fill: #a0e9ff;
      }

      .cls-11 {
        fill: #2191f2;
      }

      .cls-12 {
        fill: #f8f8f8;
      }

      .cls-13 {
        fill: #f5ab35;
      }

      .cls-14 {
        fill: #febac7;
      }

      .cls-20 {
        font-family: SourceSansRoman-Regular, 'Source Sans Variable';
        font-size: 48px;
        font-variation-settings: 'wght' 400;
      }

      .cls-15 {
        fill: #746980;
      }

      .cls-16 {
        mix-blend-mode: multiply;
        opacity: .15;
      }

      .cls-17 {
        fill: #000d41;
      }

      .cls-18 {
        fill: #e4464a;
      }
    </style>
  </defs>
  <g class="cls-21">
    <g id="Layer_1" data-name="Layer 1">
      <g>
        <g>
          <path class="cls-6" d="m715.18,1399.76v-50.04l-63.04-17.51c-3.51-13.04-8.62-25.42-15.11-36.92l32.09-56.78-35.38-35.38-56.45,31.91c-11.63-6.7-24.19-11.96-37.43-15.59l-17.33-62.38h-50.04l-17.33,62.38c-13.24,3.62-25.8,8.89-37.43,15.59l-56.45-31.91-35.38,35.38,32.09,56.78c-6.49,11.5-11.6,23.88-15.11,36.92l-63.04,17.51v50.04l63.55,17.65c3.58,12.69,8.66,24.75,15.07,35.95l-32.56,57.6,35.38,35.38,57.93-32.74c11.07,6.22,22.95,11.16,35.45,14.62l17.83,64.19h50.04l17.83-64.19c12.5-3.46,24.38-8.4,35.45-14.62l57.93,32.74,35.38-35.38-32.56-57.6c6.42-11.21,11.52-23.26,15.09-35.96l63.53-17.65Zm-217.67,69.22c-52.51,0-95.08-42.57-95.08-95.08s42.57-95.08,95.08-95.08,95.08,42.57,95.08,95.08-42.57,95.08-95.08,95.08Z"/>
          <path class="cls-6" d="m320.19,1321.87l5-21.28-25.06-13.74c-.19-5.89-1.13-11.67-2.74-17.21l19.31-20.94-11.51-18.58-27.19,7.93c-4.28-4.01-9.09-7.5-14.36-10.36l-1.14-28.26-21.28-5-13.6,24.8c-5.99.22-11.86,1.2-17.47,2.89l-20.82-19.2-18.58,11.51,7.98,27.35c-3.91,4.24-7.32,9-10.11,14.19l-28.55,1.15-5,21.28,25.26,13.85c.25,5.75,1.21,11.39,2.82,16.79l-19.6,21.24,11.51,18.58,27.9-8.14c4.09,3.75,8.64,7.04,13.61,9.76l1.17,29.07,21.28,5,13.99-25.51c5.66-.22,11.2-1.14,16.53-2.68l21.36,19.71,18.58-11.51-8.09-27.74c3.85-4.12,7.22-8.74,10.01-13.78l28.78-1.16Zm-99.47,7.7c-22.33-5.24-36.18-27.59-30.94-49.92,5.24-22.33,27.59-36.18,49.92-30.94,22.33,5.24,36.18,27.59,30.94,49.92-5.24,22.33-27.59,36.18-49.92,30.94Z"/>
        </g>
        <g>
          <rect class="cls-9" x="685.09" y="566.9" width="2.52" height="982.77"/>
          <g>
            <path class="cls-11" d="m397.62,623.46h0c-5.47,0-9.91-4.44-9.91-9.91h0c0-5.47,4.44-9.91,9.91-9.91h0c5.47,0,9.91,4.44,9.91,9.91h0c0,5.47-4.44,9.91-9.91,9.91Z"/>
            <rect class="cls-9" x="415.21" y="608.09" width="90.59" height="10.11" rx="3.99" ry="3.99"/>
            <path class="cls-11" d="m397.62,734.68h0c-5.47,0-9.91-4.44-9.91-9.91h0c0-5.47,4.44-9.91,9.91-9.91h0c5.47,0,9.91,4.44,9.91,9.91h0c0,5.47-4.44,9.91-9.91,9.91Z"/>
            <rect class="cls-9" x="415.21" y="719.31" width="90.59" height="10.11" rx="3.99" ry="3.99"/>
            <path class="cls-11" d="m397.62,879.47h0c-5.47,0-9.91-4.44-9.91-9.91h0c0-5.47,4.44-9.91,9.91-9.91h0c5.47,0,9.91,4.44,9.91,9.91h0c0,5.47-4.44,9.91-9.91,9.91Z"/>
            <rect class="cls-9" x="415.21" y="864.1" width="90.59" height="10.11" rx="3.99" ry="3.99"/>
            <path class="cls-11" d="m397.62,916.88h0c-5.47,0-9.91-4.44-9.91-9.91h0c0-5.47,4.44-9.91,9.91-9.91h0c5.47,0,9.91,4.44,9.91,9.91h0c0,5.47-4.44,9.91-9.91,9.91Z"/>
            <rect class="cls-9" x="415.21" y="901.52" width="90.59" height="10.11" rx="3.99" ry="3.99"/>
            <path class="cls-11" d="m425.12,652.58h0c-5.47,0-9.91-4.44-9.91-9.91h0c0-5.47,4.44-9.91,9.91-9.91h0c5.47,0,9.91,4.44,9.91,9.91h0c0,5.47-4.44,9.91-9.91,9.91Z"/>
            <rect class="cls-9" x="442.72" y="637.21" width="90.59" height="10.11" rx="3.99" ry="3.99"/>
            <path class="cls-11" d="m425.12,681.7h0c-5.47,0-9.91-4.44-9.91-9.91h0c0-5.47,4.44-9.91,9.91-9.91h0c5.47,0,9.91,4.44,9.91,9.91h0c0,5.47-4.44,9.91-9.91,9.91Z"/>
            <rect class="cls-9" x="442.72" y="666.33" width="124.97" height="10.11" rx="3.99" ry="3.99"/>
            <path class="cls-11" d="m425.12,762.59h0c-5.47,0-9.91-4.44-9.91-9.91h0c0-5.47,4.44-9.91,9.91-9.91h0c5.47,0,9.91,4.44,9.91,9.91h0c0,5.47-4.44,9.91-9.91,9.91Z"/>
            <rect class="cls-9" x="442.72" y="747.22" width="152.07" height="10.11" rx="3.99" ry="3.99"/>
            <path class="cls-11" d="m425.12,791.71h0c-5.47,0-9.91-4.44-9.91-9.91h0c0-5.47,4.44-9.91,9.91-9.91h0c5.47,0,9.91,4.44,9.91,9.91h0c0,5.47-4.44,9.91-9.91,9.91Z"/>
            <rect class="cls-9" x="442.72" y="776.34" width="102.73" height="10.11" rx="3.99" ry="3.99"/>
            <path class="cls-11" d="m450.54,818.27h0c-4.32,0-7.82-3.5-7.82-7.82h0c0-4.32,3.5-7.82,7.82-7.82h0c4.32,0,7.82,3.5,7.82,7.82h0c0,4.32-3.5,7.82-7.82,7.82Z"/>
            <path class="cls-9" d="m629.62,814.12h-161.21c-2.2,0-3.99-1.79-3.99-3.99h0c0-2.2,1.79-3.99,3.99-3.99h161.21c2.2,0,3.99,1.79,3.99,3.99h0c0,2.2-1.79,3.99-3.99,3.99Z"/>
            <path class="cls-11" d="m450.54,841.25h0c-4.32,0-7.82-3.5-7.82-7.82h0c0-4.32,3.5-7.82,7.82-7.82h0c4.32,0,7.82,3.5,7.82,7.82h0c0,4.32-3.5,7.82-7.82,7.82Z"/>
            <path class="cls-9" d="m563.7,837.1h-95.29c-2.2,0-3.99-1.79-3.99-3.99h0c0-2.2,1.79-3.99,3.99-3.99h95.29c2.2,0,3.99,1.79,3.99,3.99h0c0,2.2-1.79,3.99-3.99,3.99Z"/>
          </g>
          <g>
            <path class="cls-11" d="m397.62,958.75h0c-5.47,0-9.91-4.44-9.91-9.91h0c0-5.47,4.44-9.91,9.91-9.91h0c5.47,0,9.91,4.44,9.91,9.91h0c0,5.47-4.44,9.91-9.91,9.91Z"/>
            <rect class="cls-9" x="415.21" y="943.38" width="90.59" height="10.11" rx="3.99" ry="3.99"/>
            <path class="cls-11" d="m397.62,1069.97h0c-5.47,0-9.91-4.44-9.91-9.91h0c0-5.47,4.44-9.91,9.91-9.91h0c5.47,0,9.91,4.44,9.91,9.91h0c0,5.47-4.44,9.91-9.91,9.91Z"/>
            <rect class="cls-9" x="415.21" y="1054.6" width="90.59" height="10.11" rx="3.99" ry="3.99"/>
            <path class="cls-11" d="m397.62,1214.76h0c-5.47,0-9.91-4.44-9.91-9.91h0c0-5.47,4.44-9.91,9.91-9.91h0c5.47,0,9.91,4.44,9.91,9.91h0c0,5.47-4.44,9.91-9.91,9.91Z"/>
            <rect class="cls-9" x="415.21" y="1199.39" width="90.59" height="10.11" rx="3.99" ry="3.99"/>
            <path class="cls-11" d="m397.62,1252.17h0c-5.47,0-9.91-4.44-9.91-9.91h0c0-5.47,4.44-9.91,9.91-9.91h0c5.47,0,9.91,4.44,9.91,9.91h0c0,5.47-4.44,9.91-9.91,9.91Z"/>
            <rect class="cls-9" x="415.21" y="1236.8" width="90.59" height="10.11" rx="3.99" ry="3.99"/>
            <path class="cls-11" d="m425.12,987.87h0c-5.47,0-9.91-4.44-9.91-9.91h0c0-5.47,4.44-9.91,9.91-9.91h0c5.47,0,9.91,4.44,9.91,9.91h0c0,5.47-4.44,9.91-9.91,9.91Z"/>
            <rect class="cls-9" x="442.72" y="972.5" width="90.59" height="10.11" rx="3.99" ry="3.99"/>
            <path class="cls-11" d="m425.12,1016.99h0c-5.47,0-9.91-4.44-9.91-9.91h0c0-5.47,4.44-9.91,9.91-9.91h0c5.47,0,9.91,4.44,9.91,9.91h0c0,5.47-4.44,9.91-9.91,9.91Z"/>
            <rect class="cls-9" x="442.72" y="1001.62" width="124.97" height="10.11" rx="3.99" ry="3.99"/>
            <path class="cls-11" d="m425.12,1097.87h0c-5.47,0-9.91-4.44-9.91-9.91h0c0-5.47,4.44-9.91,9.91-9.91h0c5.47,0,9.91,4.44,9.91,9.91h0c0,5.47-4.44,9.91-9.91,9.91Z"/>
            <rect class="cls-9" x="442.72" y="1082.5" width="152.07" height="10.11" rx="3.99" ry="3.99"/>
            <path class="cls-11" d="m425.12,1126.99h0c-5.47,0-9.91-4.44-9.91-9.91h0c0-5.47,4.44-9.91,9.91-9.91h0c5.47,0,9.91,4.44,9.91,9.91h0c0,5.47-4.44,9.91-9.91,9.91Z"/>
            <rect class="cls-9" x="442.72" y="1111.62" width="102.73" height="10.11" rx="3.99" ry="3.99"/>
            <path class="cls-11" d="m450.54,1153.55h0c-4.32,0-7.82-3.5-7.82-7.82h0c0-4.32,3.5-7.82,7.82-7.82h0c4.32,0,7.82,3.5,7.82,7.82h0c0,4.32-3.5,7.82-7.82,7.82Z"/>
            <path class="cls-9" d="m629.62,1149.4h-161.21c-2.2,0-3.99-1.79-3.99-3.99h0c0-2.2,1.79-3.99,3.99-3.99h161.21c2.2,0,3.99,1.79,3.99,3.99h0c0,2.2-1.79,3.99-3.99,3.99Z"/>
            <path class="cls-11" d="m450.54,1176.54h0c-4.32,0-7.82-3.5-7.82-7.82h0c0-4.32,3.5-7.82,7.82-7.82h0c4.32,0,7.82,3.5,7.82,7.82h0c0,4.32-3.5,7.82-7.82,7.82Z"/>
            <path class="cls-9" d="m563.7,1172.39h-95.29c-2.2,0-3.99-1.79-3.99-3.99h0c0-2.2,1.79-3.99,3.99-3.99h95.29c2.2,0,3.99,1.79,3.99,3.99h0c0,2.2-1.79,3.99-3.99,3.99Z"/>
          </g>
          <path class="cls-3" d="m719.73,613.15h0c-4.46,0-8.07-3.61-8.07-8.07h0c0-4.46,3.61-8.07,8.07-8.07h0c4.46,0,8.07,3.61,8.07,8.07h0c0,4.46-3.61,8.07-8.07,8.07Z"/>
          <path class="cls-4" d="m840.84,613.15h-80.89c-4.46,0-8.07-3.61-8.07-8.07h0c0-4.46,3.61-8.07,8.07-8.07h80.89c4.46,0,8.07,3.61,8.07,8.07h0c0,4.46-3.61,8.07-8.07,8.07Z"/>
          <path class="cls-18" d="m1041.79,613.15h-160.84c-4.46,0-8.07-3.61-8.07-8.07h0c0-4.46,3.61-8.07,8.07-8.07h160.84c4.46,0,8.07,3.61,8.07,8.07h0c0,4.46-3.61,8.07-8.07,8.07Z"/>
          <path class="cls-3" d="m719.73,660.65h0c-4.46,0-8.07-3.61-8.07-8.07h0c0-4.46,3.61-8.07,8.07-8.07h0c4.46,0,8.07,3.61,8.07,8.07h0c0,4.46-3.61,8.07-8.07,8.07Z"/>
          <path class="cls-5" d="m985.63,660.65h-225.69c-4.46,0-8.07-3.61-8.07-8.07h0c0-4.46,3.61-8.07,8.07-8.07h225.69c4.46,0,8.07,3.61,8.07,8.07h0c0,4.46-3.61,8.07-8.07,8.07Z"/>
          <path class="cls-4" d="m1436.29,660.65h-410.54c-4.46,0-8.07-3.61-8.07-8.07h0c0-4.46,3.61-8.07,8.07-8.07h410.54c4.46,0,8.07,3.61,8.07,8.07h0c0,4.46-3.61,8.07-8.07,8.07Z"/>
          <path class="cls-3" d="m719.73,708.16h0c-4.46,0-8.07-3.61-8.07-8.07h0c0-4.46,3.61-8.07,8.07-8.07h0c4.46,0,8.07,3.61,8.07,8.07h0c0,4.46-3.61,8.07-8.07,8.07Z"/>
          <rect class="cls-5" x="751.87" y="692.01" width="97.04" height="16.14" rx="8.07" ry="8.07"/>
          <path class="cls-3" d="m719.73,755.66h0c-4.46,0-8.07-3.61-8.07-8.07h0c0-4.46,3.61-8.07,8.07-8.07h0c4.46,0,8.07,3.61,8.07,8.07h0c0,4.46-3.61,8.07-8.07,8.07Z"/>
          <path class="cls-18" d="m799.96,755.66h-40.01c-4.46,0-8.07-3.61-8.07-8.07h0c0-4.46,3.61-8.07,8.07-8.07h40.01c4.46,0,8.07,3.61,8.07,8.07h0c0,4.46-3.61,8.07-8.07,8.07Z"/>
          <path class="cls-9" d="m985.63,755.66h-145.56c-4.46,0-8.07-3.61-8.07-8.07h0c0-4.46,3.61-8.07,8.07-8.07h145.56c4.46,0,8.07,3.61,8.07,8.07h0c0,4.46-3.61,8.07-8.07,8.07Z"/>
          <path class="cls-3" d="m719.73,803.16h0c-4.46,0-8.07-3.61-8.07-8.07h0c0-4.46,3.61-8.07,8.07-8.07h0c4.46,0,8.07,3.61,8.07,8.07h0c0,4.46-3.61,8.07-8.07,8.07Z"/>
          <path class="cls-9" d="m889.35,803.16h-80.89c-4.46,0-8.07-3.61-8.07-8.07h0c0-4.46,3.61-8.07,8.07-8.07h80.89c4.46,0,8.07,3.61,8.07,8.07h0c0,4.46-3.61,8.07-8.07,8.07Z"/>
          <path class="cls-7" d="m1126.88,803.16h-197.41c-4.46,0-8.07-3.61-8.07-8.07h0c0-4.46,3.61-8.07,8.07-8.07h197.41c4.46,0,8.07,3.61,8.07,8.07h0c0,4.46-3.61,8.07-8.07,8.07Z"/>
          <path class="cls-3" d="m719.73,850.67h0c-4.46,0-8.07-3.61-8.07-8.07h0c0-4.46,3.61-8.07,8.07-8.07h0c4.46,0,8.07,3.61,8.07,8.07h0c0,4.46-3.61,8.07-8.07,8.07Z"/>
          <path class="cls-4" d="m1519.67,850.67h-711.21c-4.46,0-8.07-3.61-8.07-8.07h0c0-4.46,3.61-8.07,8.07-8.07h711.21c4.46,0,8.07,3.61,8.07,8.07h0c0,4.46-3.61,8.07-8.07,8.07Z"/>
          <path class="cls-13" d="m1647.3,850.67h-82.06c-4.46,0-8.07-3.61-8.07-8.07h0c0-4.46,3.61-8.07,8.07-8.07h82.06c4.46,0,8.07,3.61,8.07,8.07h0c0,4.46-3.61,8.07-8.07,8.07Z"/>
          <path class="cls-13" d="m1647.3,849.32h-82.06c-4.46,0-8.07-3.61-8.07-8.07h0c0-4.46,3.61-8.07,8.07-8.07h82.06c4.46,0,8.07,3.61,8.07,8.07h0c0,4.46-3.61,8.07-8.07,8.07Z"/>
          <path class="cls-3" d="m719.73,898.17h0c-4.46,0-8.07-3.61-8.07-8.07h0c0-4.46,3.61-8.07,8.07-8.07h0c4.46,0,8.07,3.61,8.07,8.07h0c0,4.46-3.61,8.07-8.07,8.07Z"/>
          <path class="cls-3" d="m719.73,945.67h0c-4.46,0-8.07-3.61-8.07-8.07h0c0-4.46,3.61-8.07,8.07-8.07h0c4.46,0,8.07,3.61,8.07,8.07h0c0,4.46-3.61,8.07-8.07,8.07Z"/>
          <path class="cls-7" d="m1453.16,945.67h-588.98c-4.46,0-8.07-3.61-8.07-8.07h0c0-4.46,3.61-8.07,8.07-8.07h588.98c4.46,0,8.07,3.61,8.07,8.07h0c0,4.46-3.61,8.07-8.07,8.07Z"/>
          <path class="cls-4" d="m1647.3,945.67h-152.17c-4.46,0-8.07-3.61-8.07-8.07h0c0-4.46,3.61-8.07,8.07-8.07h152.17c4.46,0,8.07,3.61,8.07,8.07h0c0,4.46-3.61,8.07-8.07,8.07Z"/>
          <path class="cls-3" d="m719.73,993.18h0c-4.46,0-8.07-3.61-8.07-8.07h0c0-4.46,3.61-8.07,8.07-8.07h0c4.46,0,8.07,3.61,8.07,8.07h0c0,4.46-3.61,8.07-8.07,8.07Z"/>
          <path class="cls-18" d="m848.04,993.18h-39.58c-4.46,0-8.07-3.61-8.07-8.07h0c0-4.46,3.61-8.07,8.07-8.07h39.58c4.46,0,8.07,3.61,8.07,8.07h0c0,4.46-3.61,8.07-8.07,8.07Z"/>
          <path class="cls-3" d="m719.73,1040.06h0c-4.46,0-8.07-3.61-8.07-8.07h0c0-4.46,3.61-8.07,8.07-8.07h0c4.46,0,8.07,3.61,8.07,8.07h0c0,4.46-3.61,8.07-8.07,8.07Z"/>
          <path class="cls-9" d="m889.35,1040.06h-80.89c-4.46,0-8.07-3.61-8.07-8.07h0c0-4.46,3.61-8.07,8.07-8.07h80.89c4.46,0,8.07,3.61,8.07,8.07h0c0,4.46-3.61,8.07-8.07,8.07Z"/>
          <path class="cls-7" d="m1126.88,1040.06h-197.41c-4.46,0-8.07-3.61-8.07-8.07h0c0-4.46,3.61-8.07,8.07-8.07h197.41c4.46,0,8.07,3.61,8.07,8.07h0c0,4.46-3.61,8.07-8.07,8.07Z"/>
          <path class="cls-3" d="m719.73,1087.56h0c-4.46,0-8.07-3.61-8.07-8.07h0c0-4.46,3.61-8.07,8.07-8.07h0c4.46,0,8.07,3.61,8.07,8.07h0c0,4.46-3.61,8.07-8.07,8.07Z"/>
          <path class="cls-4" d="m1519.67,1087.56h-711.21c-4.46,0-8.07-3.61-8.07-8.07h0c0-4.46,3.61-8.07,8.07-8.07h711.21c4.46,0,8.07,3.61,8.07,8.07h0c0,4.46-3.61,8.07-8.07,8.07Z"/>
          <path class="cls-13" d="m1647.3,1087.56h-82.06c-4.46,0-8.07-3.61-8.07-8.07h0c0-4.46,3.61-8.07,8.07-8.07h82.06c4.46,0,8.07,3.61,8.07,8.07h0c0,4.46-3.61,8.07-8.07,8.07Z"/>
          <path class="cls-13" d="m1647.3,1086.22h-82.06c-4.46,0-8.07-3.61-8.07-8.07h0c0-4.46,3.61-8.07,8.07-8.07h82.06c4.46,0,8.07,3.61,8.07,8.07h0c0,4.46-3.61,8.07-8.07,8.07Z"/>
          <path class="cls-3" d="m719.73,1135.06h0c-4.46,0-8.07-3.61-8.07-8.07h0c0-4.46,3.61-8.07,8.07-8.07h0c4.46,0,8.07,3.61,8.07,8.07h0c0,4.46-3.61,8.07-8.07,8.07Z"/>
          <path class="cls-18" d="m1850.43,1135.06h-986.24c-4.46,0-8.07-3.61-8.07-8.07h0c0-4.46,3.61-8.07,8.07-8.07h986.24c4.46,0,8.07,3.61,8.07,8.07h0c0,4.46-3.61,8.07-8.07,8.07Z"/>
          <path class="cls-3" d="m719.73,1182.57h0c-4.46,0-8.07-3.61-8.07-8.07h0c0-4.46,3.61-8.07,8.07-8.07h0c4.46,0,8.07,3.61,8.07,8.07h0c0,4.46-3.61,8.07-8.07,8.07Z"/>
          <path class="cls-7" d="m1028.64,1182.57h-164.45c-4.46,0-8.07-3.61-8.07-8.07h0c0-4.46,3.61-8.07,8.07-8.07h164.45c4.46,0,8.07,3.61,8.07,8.07h0c0,4.46-3.61,8.07-8.07,8.07Z"/>
          <path class="cls-9" d="m1453.16,1182.57h-376.72c-4.46,0-8.07-3.61-8.07-8.07h0c0-4.46,3.61-8.07,8.07-8.07h376.72c4.46,0,8.07,3.61,8.07,8.07h0c0,4.46-3.61,8.07-8.07,8.07Z"/>
          <path class="cls-4" d="m1647.3,1182.57h-152.17c-4.46,0-8.07-3.61-8.07-8.07h0c0-4.46,3.61-8.07,8.07-8.07h152.17c4.46,0,8.07,3.61,8.07,8.07h0c0,4.46-3.61,8.07-8.07,8.07Z"/>
          <path class="cls-3" d="m719.73,1230.07h0c-4.46,0-8.07-3.61-8.07-8.07h0c0-4.46,3.61-8.07,8.07-8.07h0c4.46,0,8.07,3.61,8.07,8.07h0c0,4.46-3.61,8.07-8.07,8.07Z"/>
          <rect class="cls-13" x="800.39" y="1213.93" width="55.73" height="16.14" rx="8.07" ry="8.07"/>
          <path class="cls-3" d="m719.73,1276.95h0c-4.46,0-8.07-3.61-8.07-8.07h0c0-4.46,3.61-8.07,8.07-8.07h0c4.46,0,8.07,3.61,8.07,8.07h0c0,4.46-3.61,8.07-8.07,8.07Z"/>
          <path class="cls-9" d="m889.35,1276.95h-80.89c-4.46,0-8.07-3.61-8.07-8.07h0c0-4.46,3.61-8.07,8.07-8.07h80.89c4.46,0,8.07,3.61,8.07,8.07h0c0,4.46-3.61,8.07-8.07,8.07Z"/>
          <path class="cls-7" d="m1126.88,1276.95h-197.41c-4.46,0-8.07-3.61-8.07-8.07h0c0-4.46,3.61-8.07,8.07-8.07h197.41c4.46,0,8.07,3.61,8.07,8.07h0c0,4.46-3.61,8.07-8.07,8.07Z"/>
          <path class="cls-3" d="m719.73,1324.45h0c-4.46,0-8.07-3.61-8.07-8.07h0c0-4.46,3.61-8.07,8.07-8.07h0c4.46,0,8.07,3.61,8.07,8.07h0c0,4.46-3.61,8.07-8.07,8.07Z"/>
          <path class="cls-4" d="m1519.67,1324.45h-711.21c-4.46,0-8.07-3.61-8.07-8.07h0c0-4.46,3.61-8.07,8.07-8.07h711.21c4.46,0,8.07,3.61,8.07,8.07h0c0,4.46-3.61,8.07-8.07,8.07Z"/>
          <path class="cls-13" d="m1647.3,1324.45h-82.06c-4.46,0-8.07-3.61-8.07-8.07h0c0-4.46,3.61-8.07,8.07-8.07h82.06c4.46,0,8.07,3.61,8.07,8.07h0c0,4.46-3.61,8.07-8.07,8.07Z"/>
          <path class="cls-4" d="m1647.3,1323.11h-82.06c-4.46,0-8.07-3.61-8.07-8.07h0c0-4.46,3.61-8.07,8.07-8.07h82.06c4.46,0,8.07,3.61,8.07,8.07h0c0,4.46-3.61,8.07-8.07,8.07Z"/>
          <path class="cls-3" d="m719.73,1371.96h0c-4.46,0-8.07-3.61-8.07-8.07h0c0-4.46,3.61-8.07,8.07-8.07h0c4.46,0,8.07,3.61,8.07,8.07h0c0,4.46-3.61,8.07-8.07,8.07Z"/>
          <path class="cls-7" d="m1850.43,1371.96h-986.24c-4.46,0-8.07-3.61-8.07-8.07h0c0-4.46,3.61-8.07,8.07-8.07h986.24c4.46,0,8.07,3.61,8.07,8.07h0c0,4.46-3.61,8.07-8.07,8.07Z"/>
          <path class="cls-3" d="m719.73,1419.46h0c-4.46,0-8.07-3.61-8.07-8.07h0c0-4.46,3.61-8.07,8.07-8.07h0c4.46,0,8.07,3.61,8.07,8.07h0c0,4.46-3.61,8.07-8.07,8.07Z"/>
          <path class="cls-9" d="m1453.16,1419.46h-588.98c-4.46,0-8.07-3.61-8.07-8.07h0c0-4.46,3.61-8.07,8.07-8.07h588.98c4.46,0,8.07,3.61,8.07,8.07h0c0,4.46-3.61,8.07-8.07,8.07Z"/>
          <path class="cls-18" d="m1647.3,1419.46h-152.17c-4.46,0-8.07-3.61-8.07-8.07h0c0-4.46,3.61-8.07,8.07-8.07h152.17c4.46,0,8.07,3.61,8.07,8.07h0c0,4.46-3.61,8.07-8.07,8.07Z"/>
          <path class="cls-9" d="m1850.43,1419.46h-152.17c-4.46,0-8.07-3.61-8.07-8.07h0c0-4.46,3.61-8.07,8.07-8.07h152.17c4.46,0,8.07,3.61,8.07,8.07h0c0,4.46-3.61,8.07-8.07,8.07Z"/>
          <path class="cls-3" d="m719.73,1466.96h0c-4.46,0-8.07-3.61-8.07-8.07h0c0-4.46,3.61-8.07,8.07-8.07h0c4.46,0,8.07,3.61,8.07,8.07h0c0,4.46-3.61,8.07-8.07,8.07Z"/>
          <path class="cls-13" d="m848.04,1466.96h-39.58c-4.46,0-8.07-3.61-8.07-8.07h0c0-4.46,3.61-8.07,8.07-8.07h39.58c4.46,0,8.07,3.61,8.07,8.07h0c0,4.46-3.61,8.07-8.07,8.07Z"/>
        </g>
        <g>
          <path class="cls-4" d="m1321.76,1075.89c0,36.34-29.45,65.8-65.8,65.8s-65.81-29.46-65.81-65.8,29.46-65.8,65.81-65.8,65.8,29.46,65.8,65.8Z"/>
          <path class="cls-12" d="m1221.79,1119.83c1.01,0,2.03-.4,2.78-1.18,1.48-1.54,1.43-3.98-.11-5.46-14.37-13.81-14.53-33.89-14.53-34.09,0-2.13-1.73-3.86-3.86-3.86s-3.86,1.73-3.86,3.86c0,.96.19,23.59,16.9,39.66.75.72,1.71,1.08,2.67,1.08Z"/>
          <polygon class="cls-1" points="1531.77 1466.78 1585.71 1189.45 1378.49 966.98 1389.35 951.74 1607.48 1182.69 1552.92 1463.81 1531.77 1466.78"/>
          <polygon class="cls-1" points="1402.39 965.54 1426.61 991.19 1401.03 991.19 1392.7 982.24 1402.39 965.54"/>
          <polygon class="cls-1" points="1596.72 1238.17 1580.16 1217.98 1581.19 1212.67 1601.98 1211.03 1596.72 1238.17"/>
          <path class="cls-12" d="m1472.01,1501.66c0,1.49-1.2,2.7-2.7,2.7h-35.77c-1.49,0-2.71-1.21-2.71-2.7v-27.01c0-1.49,1.22-2.69,2.71-2.69h35.77c1.5,0,2.7,1.21,2.7,2.69v27.01Z"/>
          <path class="cls-1" d="m1542.34,1476.12c-88.13,0-159.58,20.57-159.58,57.42h319.16c0-36.85-71.44-57.42-159.58-57.42Z"/>
          <path class="cls-1" d="m1542.34,1499.09c-16.02,0-12.83-12.16-6.85-22.93,2.27-.03,4.56-.05,6.85-.05,19.46,0,38.1,1,55.34,2.96-8.89,5.89-32.57,20.01-55.34,20.01Z"/>
          <g>
            <path class="cls-5" d="m1407.37,985.26c-13.45,12.96-34.84,12.56-47.8-.88-12.96-13.43-12.56-34.83.88-47.79,13.44-12.95,34.84-12.56,47.79.88,12.95,13.44,12.56,34.83-.88,47.79Z"/>
            <path class="cls-1" d="m1395.24,972.69c-6.49,6.25-16.83,6.06-23.09-.43-6.26-6.49-6.07-16.82.43-23.07,6.49-6.26,16.83-6.07,23.08.42,6.25,6.49,6.06,16.82-.43,23.08Z"/>
          </g>
          <g>
            <path class="cls-5" d="m1630.12,1185.96c0,18.67-15.14,33.8-33.8,33.8s-33.8-15.13-33.8-33.8,15.13-33.8,33.8-33.8,33.8,15.13,33.8,33.8Z"/>
            <path class="cls-1" d="m1612.64,1185.96c0,9.02-7.31,16.32-16.33,16.32s-16.32-7.31-16.32-16.32,7.31-16.33,16.32-16.33,16.33,7.31,16.33,16.33Z"/>
          </g>
          <g>
            <path class="cls-5" d="m1576.13,1465.29c0,18.67-15.13,33.8-33.79,33.8s-33.8-15.13-33.8-33.8,15.13-33.8,33.8-33.8,33.79,15.13,33.79,33.8Z"/>
            <path class="cls-1" d="m1558.67,1465.29c0,9.01-7.31,16.33-16.33,16.33s-16.33-7.32-16.33-16.33,7.31-16.32,16.33-16.32,16.33,7.31,16.33,16.32Z"/>
          </g>
          <rect class="cls-1" x="1350.05" y="956.85" width="21.14" height="51.75" transform="translate(-300.99 1219.5) rotate(-43.95)"/>
          <path class="cls-5" d="m1173.16,1030.41c65.76-63.38,126.82-104.48,186.22-45.09,54.6,54.6,13.85,121.05-51.9,184.43l-134.31-139.34Z"/>
          <g>
            <path class="cls-12" d="m1383.83,949.18c-6.22,0-11.24,5.03-11.24,11.24s5.02,11.24,11.24,11.24,11.23-5.03,11.23-11.24-5.03-11.24-11.23-11.24Z"/>
            <path class="cls-12" d="m1596.32,1174.5c-6.21,0-11.24,5.03-11.24,11.24s5.03,11.24,11.24,11.24,11.24-5.03,11.24-11.24-5.03-11.24-11.24-11.24Z"/>
            <path class="cls-12" d="m1542.34,1454.05c-6.2,0-11.24,5.03-11.24,11.24s5.04,11.24,11.24,11.24,11.23-5.03,11.23-11.24-5.02-11.24-11.23-11.24Z"/>
          </g>
        </g>
        <g>
          <path class="cls-16" d="m1452.8,1613.06c-1.47-17.48-18.14-30.56-35.34-33.98-17.21-3.42-34.91.55-52.08,4.18-203.09,42.95-415.96,38.97-617.3-11.53-19.58-4.91-39.42-10.3-59.6-9.53-20.18.77-41.2,8.78-52.46,25.54-17.45,25.95-4.28,63.87,21.14,82.1,25.41,18.23,58.79,20.89,89.99,18.73,31.2-2.16,62.35-8.49,93.51-5.73,30.09,2.66,62.69,17.35,71.96,46.1,5.57,17.28-13.03,118.59,34.57,94.9,15.46-7.69,15.36-34.54,26.94-47.72,12.99-14.78,32.33-24.19,52.12-24.18,27.96.01,54.96,18.84,64.63,45.07,7.37,19.99,8.44,46.96,28.35,54.53,20.03,7.62,39.09-12.3,51.35-29.89,10.8-15.5,21.61-31,32.42-46.51,9.84-14.12,20.01-29.08,21.65-46.22,1.65-17.14-8.68-36.72-25.75-38.91,57.4-17.05,116.87-27.13,176.68-29.97,16.93-.8,34.4-1.14,49.91-7.97,15.51-6.83,28.73-22.14,27.32-39.03Z"/>
          <g>
            <polygon class="cls-1" points="821.77 1472.96 1302.73 1451.97 1272.99 1560.67 992.96 1678.11 814.62 1598.62 821.77 1472.96"/>
            <polygon class="cls-2" points="873.08 1426.94 877.26 1512.43 1244.76 1512.43 1254.02 1333.46 873.08 1426.94"/>
            <path class="cls-2" d="m991.27,1094.98s-156.94,31.81-185.8,55.51c-28.87,23.7-57.46,314.44-47.7,327.85,9.76,13.41,597.08,27.12,610.62,1.98,13.54-25.14-61.89-326.25-82.19-341.33-20.31-15.08-245.18-47.39-294.93-44.01Z"/>
            <path class="cls-17" d="m1244.8,1402.59s-.1,0-.15,0c-.95-.08-1.66-.92-1.57-1.87,4.79-55.39.04-211.37,0-212.94-.03-.95.72-1.75,1.67-1.78.88-.07,1.75.72,1.78,1.67.05,1.57,4.8,157.76,0,213.35-.08.9-.83,1.58-1.72,1.58Z"/>
            <path class="cls-17" d="m857.06,1396.92c-.07,0-.13,0-.2-.01-.95-.11-1.63-.97-1.52-1.91,7.5-65.57-6.02-200.26-6.15-201.61-.1-.95.6-1.8,1.54-1.89.95-.09,1.8.6,1.89,1.54.14,1.36,13.69,136.41,6.15,202.35-.1.88-.85,1.53-1.71,1.53Z"/>
            <path class="cls-14" d="m911.57,1466.25l-7.41-29.95c-.51-2.05.67-4.15,2.69-4.78l10.15-3.15c1.42-.44,2.47-1.63,2.75-3.09l1.72-9.3c.35-1.89,2-3.27,3.93-3.27h8.3c1.38,0,2.66-.71,3.39-1.88l5.06-8.1c1.15-1.84,3.56-2.43,5.43-1.32l9.61,5.69c1.23.73,2.75.75,3.99.05l5.64-3.15c1.83-1.02,4.13-.46,5.28,1.28l20.21,30.54c1.25,1.89.68,4.44-1.25,5.62l-4.48,2.73c-1.65,1.01-3.79.69-5.08-.76h0c-2.65-2.99-7.56-.68-6.94,3.26l.21,1.33c.27,1.73-.61,3.43-2.18,4.2l-39.62,19.56c-.26.13-.53.23-.81.3-2.49.62-14.66,3.17-20.02-4.53-.27-.38-.44-.82-.55-1.27Z"/>
            <path class="cls-14" d="m1190.77,1466.25l7.41-29.95c.51-2.05-.67-4.15-2.69-4.78l-10.15-3.15c-1.42-.44-2.47-1.63-2.75-3.09l-1.72-9.3c-.35-1.89-2-3.27-3.93-3.27h-8.3c-1.38,0-2.66-.71-3.39-1.88l-5.06-8.1c-1.15-1.84-3.56-2.43-5.43-1.32l-9.61,5.69c-1.23.73-2.75.75-3.99.05l-5.64-3.15c-1.83-1.02-4.13-.46-5.28,1.28l-20.21,30.54c-1.25,1.89-.68,4.44,1.25,5.62l4.48,2.73c1.65,1.01,3.79.69,5.08-.76h0c2.65-2.99,7.56-.68,6.94,3.26l-.21,1.33c-.27,1.73.61,3.43,2.18,4.2l39.62,19.56c.26.13.53.23.81.3,2.49.62,14.66,3.17,20.02-4.53.27-.38.44-.82.55-1.27Z"/>
            <path class="cls-17" d="m904.04,1426.07c-.08,0-.17,0-.25-.02l-93.96-13.84c-.94-.14-1.6-1.02-1.46-1.96.14-.94,1.02-1.6,1.96-1.46l93.96,13.84c.94.14,1.6,1.02,1.46,1.96-.13.86-.86,1.48-1.71,1.48Z"/>
            <path class="cls-17" d="m1206.57,1431.05c-.82,0-1.55-.59-1.7-1.43-.17-.94.46-1.84,1.4-2l76.38-13.62c.94-.18,1.84.46,2,1.4.17.94-.46,1.84-1.4,2l-76.38,13.62c-.1.02-.2.03-.3.03Z"/>
            <g>
              <g>
                <path class="cls-14" d="m966.19,1027.69s-13.18,113.36,67.55,113.36c73.43,0,70.87-97.53,70.87-97.53,0,0,7.34-60.36-49.59-67.19-56.93-6.83-92.27,30.99-88.83,51.36Z"/>
                <path class="cls-1" d="m1085.07,990.5s-17.94,35.14.24,52.99c11.6,11.39,16.73,27.82,13.01,43.64l-.2.85s30.48-24.15,36.13-73.11c5.65-48.96-16.57-79.77-35.38-76.3,0,0-7.49-37.61-55.27-34.1-47.78,3.52-87.21-.36-104.51,37.51-17.3,37.88,12.86,71.04,12.86,71.04,0,0,2.35,40.09,18.66,74.96l-6.37-46.81s52.5-70.53,120.82-50.69Z"/>
              </g>
              <path class="cls-14" d="m1103.7,1049.6l-5.57,38.38s27.14-14.4,26.7-33.94c-.14-6.51-2.41-10.11-5.36-12.01-6.29-4.06-14.7.17-15.78,7.58Z"/>
              <path class="cls-14" d="m966.34,1038.56l4.7,49.42s-26.08-15.11-25.64-34.65c.43-19.54,20.94-14.76,20.94-14.76Z"/>
            </g>
            <g>
              <rect class="cls-12" x="886.42" y="1303.42" width="315.15" height="222.71" rx="21.64" ry="21.64"/>
              <path class="cls-15" d="m1196.33,1536.6h-304.67c-2.89,0-5.24-2.35-5.24-5.24h0c0-2.89,2.35-5.24,5.24-5.24h304.67c2.89,0,5.24,2.35,5.24,5.24h0c0,2.89-2.35,5.24-5.24,5.24Z"/>
              <path class="cls-9" d="m1151,1530.97c0,1.23-1,2.23-2.23,2.23s-2.23-1-2.23-2.23,1-2.23,2.23-2.23,2.23,1,2.23,2.23Z"/>
              <rect class="cls-9" x="1123.11" y="1528.73" width="18.03" height="4.47"/>
            </g>
            <g>
              <path class="cls-5" d="m720.59,1400.12l417.46,253.46c-33.61,27.29-52.31,62.94-59.83,104.87l-434.85-218.99c-43.77-22.04-57.47-78-28.84-117.77h0c24.31-33.77,70.5-43.16,106.06-21.56Z"/>
              <path class="cls-1" d="m1017.33,1692.06l-26.51,22.38,52.44,26.41c15.69-13.5,46.28-39.56,50.84-41.3,6.17-2.35-76.77-7.49-76.77-7.49Z"/>
              <path class="cls-1" d="m1138.05,1653.58l69.53,39.18c5.19,2.92,7,9.51,4.03,14.68-18.34,31.98-79.52,135.36-111.84,149.41,0,0-26.1-8.38-16.1-42.51,10-34.12-3.45-65.69-3.45-65.69,0,0,2.27-79.55,57.84-95.07Z"/>
              <path class="cls-8" d="m1099.77,1856.85c32.33-14.05,93.5-117.43,111.84-149.41,2.34-4.08,1.69-9.03-1.23-12.38-12.42,7.35-66.22,44.72-110.62,161.8Z"/>
            </g>
            <g>
              <path class="cls-5" d="m1357.18,1428.74l-441.07,209.69c30.66,30.56,45.64,67.93,48.86,110.41l454.86-173.64c45.79-17.48,65.11-71.75,40.66-114.23h0c-20.75-36.06-65.74-50.1-103.32-32.24Z"/>
              <path class="cls-1" d="m916.11,1638.43l-73.15,31.9c-5.46,2.38-7.93,8.75-5.51,14.19,14.99,33.68,65.34,142.74,96.07,160.01,0,0,26.82-5.69,20.34-40.65-6.47-34.96,10.12-65,10.12-65,0,0,5.83-79.37-47.87-100.46Z"/>
              <path class="cls-8" d="m933.52,1844.54c-30.73-17.27-81.07-126.33-96.07-160.01-1.91-4.29-.77-9.16,2.48-12.19,11.61,8.58,61.33,51.22,93.59,172.21Z"/>
            </g>
            <g>
              <path class="cls-2" d="m758.51,1403.51c-3.12,40.54-3.73,70.71-.74,74.83,2.74,3.77,51.14,7.57,119.6,10.51l-118.86-85.34Z"/>
              <path class="cls-2" d="m1198.97,1494.05c92.92-1.07,164.78-5.13,169.42-13.73,3.32-6.16,1.29-28.86-3.94-59.86l-165.47,73.59Z"/>
            </g>
            <path class="cls-17" d="m933.01,1632.13c-.65,0-1.27-.36-1.56-.99-.41-.86-.04-1.89.82-2.3l79.11-37.61c.86-.41,1.89-.04,2.3.82.41.86.04,1.89-.82,2.3l-79.11,37.61c-.24.11-.49.17-.74.17Z"/>
          </g>
        </g>
        <g>
          <path class="cls-2" d="m520.49,438.24h185.55c11.11,0,20.14,9.02,20.14,20.14v101.85c0,11.11-9.02,20.14-20.14,20.14h-185.55c-11.11,0-20.14-9.02-20.14-20.14v-101.84c0-11.11,9.02-20.14,20.14-20.14Z"/>
          <g>
            <polygon class="cls-12" points="583.41 549.13 598.12 549.13 640.45 469.48 625.74 469.48 583.41 549.13"/>
            <polygon class="cls-12" points="687.88 511.67 687.77 511.67 665 479.45 649.38 479.45 672.21 511.76 649.38 542.53 665 542.53 687.77 511.85 687.88 511.85 687.83 511.76 687.88 511.67"/>
            <polygon class="cls-12" points="538.66 511.67 538.76 511.67 561.53 479.45 575.81 479.45 552.98 511.76 575.81 542.53 561.53 542.53 538.76 511.85 538.66 511.85 538.71 511.76 538.66 511.67"/>
          </g>
        </g>
        <g>
          <path class="cls-5" d="m1319.87,607.03h221.91c13.29,0,24.08,10.79,24.08,24.08v121.81c0,13.29-10.79,24.08-24.08,24.08h-221.91c-13.29,0-24.08-10.79-24.08-24.08v-121.8c0-13.29,10.79-24.08,24.08-24.08Z"/>
          <g>
            <path class="cls-12" d="m1369.35,687.92c-.9,1.21-2.53,2.49-4.86,3.85l-2.6,1.7c.75.6,1.62,1.17,2.6,1.69,1.66,1.06,2.89,1.92,3.68,2.6.79.68,1.41,1.58,1.87,2.71.45,1.14.68,2.68.68,4.64v20.69c0,2.94.85,5.05,2.54,6.34,1.7,1.28,4.54,1.92,8.54,1.92v8.59h-3.96c-6.03,0-10.35-1.05-12.95-3.16-2.6-2.11-3.9-5.66-3.9-10.64v-24.42c0-2.34-.42-4.02-1.24-5.03-.83-1.02-2.11-1.53-3.84-1.53h-3.28v-8.71h3.28c1.73,0,3.02-.5,3.84-1.53.83-1.02,1.24-2.7,1.24-5.03v-24.42c0-4.9,1.3-8.43,3.9-10.57,2.6-2.15,6.92-3.22,12.95-3.22h3.96v8.59c-4,0-6.84.64-8.54,1.92-1.69,1.28-2.54,3.4-2.54,6.34v20.81c0,2.72-.45,4.67-1.36,5.88Z"/>
            <path class="cls-12" d="m1509.05,689.17v8.71h-3.28c-1.74,0-3.02.5-3.85,1.53-.83,1.02-1.24,2.7-1.24,5.03v24.42c0,4.98-1.3,8.52-3.9,10.64-2.6,2.11-6.92,3.16-12.95,3.16h-3.96v-8.59c3.99,0,6.84-.64,8.54-1.92,1.7-1.28,2.55-3.4,2.55-6.34v-20.69c0-1.96.23-3.5.68-4.64.45-1.13,1.07-2.03,1.86-2.71.79-.68,2.02-1.54,3.68-2.6.98-.53,1.85-1.09,2.6-1.69l-2.6-1.7c-2.34-1.36-3.96-2.64-4.86-3.85-.9-1.21-1.36-3.16-1.36-5.88v-20.81c0-2.94-.85-5.05-2.55-6.34-1.69-1.28-4.54-1.92-8.54-1.92v-8.59h3.96c6.03,0,10.35,1.07,12.95,3.22,2.6,2.15,3.9,5.67,3.9,10.57v24.42c0,2.34.41,4.02,1.24,5.03.83,1.02,2.11,1.53,3.85,1.53h3.28Z"/>
          </g>
        </g>
        <g>
          <g>
            <circle class="cls-5" cx="1363.11" cy="377" r="72.35" transform="translate(799.79 1674.25) rotate(-81.99)"/>
            <g>
              <path class="cls-10" d="m1329.66,359.42l-1.42,8.91,9.67,1.55,1.42-8.91,4.82.77-3.41,21.36-4.82-.77,1.35-8.42-9.67-1.55-1.35,8.42-4.82-.77,3.41-21.36,4.82.77Z"/>
              <path class="cls-10" d="m1364.61,365l-.65,4.09-6.53-1.04-2.76,17.27-4.82-.77,2.76-17.27-6.5-1.04.65-4.09,17.85,2.85Z"/>
              <path class="cls-10" d="m1372.61,366.28l4.14,14.06,8.28-12.07,5.37.86-3.41,21.36-4.33-.69,2.3-14.41-7.63,11.33-3.14-.5-3.72-13.15-2.3,14.41-4.36-.7,3.41-21.36,5.4.86Z"/>
              <path class="cls-10" d="m1399.96,370.65l-2.74,17.15,9.16,1.46-.67,4.21-13.98-2.23,3.41-21.36,4.82.77Z"/>
            </g>
          </g>
          <g>
            <circle class="cls-5" cx="212.53" cy="1040.44" r="57.92" transform="translate(-387.5 164.29) rotate(-22.86)"/>
            <g>
              <path class="cls-10" d="m191.05,1055.6c-5.01-.42-8.89-2.9-11.73-6.85l4.4-5.65c2.38,2.99,5.25,4.64,7.55,4.83,2.78.23,4.63-1.33,4.9-4.53l1.52-18.03-12.86-1.09.6-7.15,21.34,1.8-2.15,25.4c-.66,7.84-5.84,11.92-13.58,11.26Z"/>
              <path class="cls-10" d="m226.67,1027.49c-2.83-.24-4.83.61-5.01,2.64-.58,6.88,19.64,4.72,18.45,18.16-.62,7.31-7.3,10.72-15.57,10.02-6.14-.52-12.07-3.38-15.99-7.32l3.94-6.6c3.55,3.74,8.81,6.39,12.76,6.72,3.47.29,5.66-.81,5.85-3.1.6-7.04-19.65-4.62-18.53-17.85.57-6.77,6.75-10.55,15.39-9.82,5.23.44,10.32,2.49,13.85,5.26l-3.85,6.71c-3.75-2.68-8.32-4.57-11.31-4.82Z"/>
            </g>
          </g>
          <g>
            <path class="cls-9" d="m1640.13,1446.84h100.13c10.26,0,18.58,8.33,18.58,18.58v94c0,10.26-8.33,18.58-18.58,18.58h-100.13c-10.26,0-18.59-8.33-18.59-18.59v-94c0-10.26,8.33-18.59,18.59-18.59Z"/>
            <g>
              <path class="cls-10" d="m1695.55,1477.76v9.43l2.37.75c1.42.45,2.82,1.03,4.17,1.74l2.21,1.16,1.76-1.76,4.9-4.9,7.54,7.54-4.91,4.91-1.76,1.76,1.15,2.2c.71,1.36,1.29,2.76,1.73,4.17l.74,2.38h9.41v10.66h-9.43l-.75,2.37c-.45,1.42-1.03,2.82-1.74,4.17l-1.16,2.21,1.76,1.76,4.9,4.9-7.54,7.54-4.91-4.91-1.76-1.76-2.2,1.15c-1.36.71-2.76,1.29-4.17,1.73l-2.38.74v9.41h-10.66v-9.43l-2.37-.75c-1.42-.45-2.82-1.03-4.17-1.74l-2.21-1.16-1.76,1.76-4.9,4.9-7.54-7.54,4.91-4.91,1.76-1.76-1.15-2.2c-.71-1.36-1.29-2.76-1.73-4.17l-.74-2.38h-9.41v-10.66h9.43l.75-2.37c.45-1.42,1.03-2.82,1.74-4.17l1.16-2.21-1.76-1.76-4.9-4.9,7.54-7.54,4.91,4.91,1.76,1.76,2.2-1.15c1.36-.71,2.76-1.29,4.17-1.73l2.38-.74v-9.41h10.66m3.39-3.39h-17.43v10.31c-1.64.51-3.22,1.18-4.73,1.96l-7.31-7.31-12.33,12.33,7.3,7.3c-.79,1.5-1.45,3.08-1.97,4.72h-10.33v17.43h10.31c.51,1.64,1.18,3.22,1.96,4.73l-7.31,7.31,12.33,12.33,7.3-7.3c1.5.79,3.08,1.45,4.72,1.97v10.33h17.43v-10.31c1.64-.51,3.22-1.18,4.73-1.96l7.31,7.31,12.33-12.33-7.3-7.3c.79-1.5,1.45-3.08,1.97-4.72h10.33v-17.43h-10.31c-.51-1.64-1.18-3.22-1.96-4.73l7.31-7.31-12.33-12.33-7.3,7.3c-1.5-.79-3.08-1.45-4.72-1.97v-10.33h0Z"/>
              <path class="cls-10" d="m1690.19,1497.49c8.23,0,14.93,6.7,14.93,14.93s-6.7,14.93-14.93,14.93-14.93-6.7-14.93-14.93,6.7-14.93,14.93-14.93m0-3.39c-10.12,0-18.32,8.2-18.32,18.32s8.2,18.32,18.32,18.32,18.32-8.2,18.32-18.32-8.2-18.32-18.32-18.32h0Z"/>
            </g>
          </g>
          <g>
            <circle class="cls-2" cx="1690.19" cy="580.36" r="71.5" transform="translate(737.03 2092) rotate(-76.72)"/>
            <g>
              <path class="cls-10" d="m1663.86,572.01c-5.6,0-9.94,4.34-9.94,10.03s4.34,10.08,9.94,10.08c2.94,0,6.16-1.49,8.49-3.83l4.34,4.71c-3.45,3.55-8.45,5.83-13.21,5.83-9.75,0-17.13-7.23-17.13-16.71s7.51-16.52,17.41-16.52c4.71,0,9.66,2.1,12.88,5.41l-4.29,5.23c-2.24-2.57-5.46-4.25-8.49-4.25Z"/>
              <path class="cls-10" d="m1692.4,571.82c-2.47,0-4.15.89-4.15,2.66,0,6.02,17.41,2.66,17.36,14.42,0,6.39-5.55,9.85-12.78,9.85-5.37,0-10.74-2.05-14.42-5.18l2.94-6.02c3.36,2.99,8.12,4.9,11.57,4.9,3.03,0,4.85-1.12,4.85-3.13,0-6.16-17.41-2.57-17.41-14.14,0-5.93,5.09-9.66,12.65-9.66,4.57,0,9.15,1.4,12.41,3.55l-2.85,6.11c-3.45-2.05-7.56-3.36-10.17-3.36Z"/>
              <path class="cls-10" d="m1722.11,571.82c-2.47,0-4.15.89-4.15,2.66,0,6.02,17.41,2.66,17.36,14.42,0,6.39-5.55,9.85-12.78,9.85-5.37,0-10.74-2.05-14.42-5.18l2.94-6.02c3.36,2.99,8.12,4.9,11.57,4.9,3.03,0,4.85-1.12,4.85-3.13,0-6.16-17.41-2.57-17.41-14.14,0-5.93,5.09-9.66,12.65-9.66,4.57,0,9.15,1.4,12.41,3.55l-2.85,6.11c-3.45-2.05-7.56-3.36-10.17-3.36Z"/>
            </g>
          </g>
          <g>
            <circle class="cls-2" cx="1123.11" cy="509.3" r="58.67" transform="translate(173.49 1296.06) rotate(-64.03)"/>
            <g>
              <path class="cls-10" d="m1090.87,495.94l4.95,9.05,5.21-8.92,6.48.08-8.26,13.96,8.58,15.44-6.55-.08-5.59-9.86-5.75,9.71-6.42-.08,8.9-14.92-7.93-14.46,6.38.08Z"/>
              <path class="cls-10" d="m1117.44,496.28l6.84,18.06,7.27-17.88,6.1.08-.38,29.39-4.92-.06.26-19.81-6.67,16.75-3.57-.05-6.23-16.92-.26,19.81-4.96-.06.38-29.39,6.14.08Z"/>
              <path class="cls-10" d="m1148.5,496.69l-.31,23.59,10.4.13-.07,5.79-15.88-.21.38-29.39,5.48.07Z"/>
            </g>
          </g>
          <g>
            <circle class="cls-9" cx="299.06" cy="794.93" r="59.29" transform="translate(-143.36 69.94) rotate(-10.78)"/>
            <g>
              <path class="cls-10" d="m271.63,793.06c-1.72.52-2.67,1.62-2.22,3.12,1.53,5.08,12.81-1.4,15.76,8.53,1.62,5.4-1.37,9.47-6.41,10.99-3.74,1.12-8,.52-11.36-1.35l.52-5.7c3.1,1.82,6.9,2.43,9.31,1.71,2.11-.64,3.1-1.96,2.59-3.65-1.56-5.2-12.78,1.48-15.72-8.29-1.5-5,1.1-9.21,6.36-10.8,3.19-.96,6.73-.74,9.55.39l-.43,5.75c-2.93-1.01-6.12-1.25-7.94-.7Z"/>
              <path class="cls-10" d="m316.25,807.85c-1.19,2.42-3.32,4.3-5.53,4.97-3.09.93-6.42-.6-9.15-3.91-6.86,1.85-13.76-2.6-16.13-10.48-2.41-8.03,1.07-15.56,8.03-17.66,6.96-2.09,14.03,2.31,16.43,10.3,1.85,6.14.23,12.08-3.79,15.48,1.3,1.03,2.61,1.49,3.72,1.16,1.11-.33,2.32-1.6,3.35-3.37l3.07,3.5Zm-15.92-4.49c3.81-1.14,5.76-5.85,4.3-10.69-1.46-4.84-5.66-7.62-9.46-6.47-3.84,1.15-5.91,5.81-4.46,10.66,1.46,4.84,5.81,7.65,9.62,6.51Z"/>
              <path class="cls-10" d="m314.47,774.69l6.65,22.13,9.76-2.93,1.63,5.44-14.9,4.48-8.29-27.56,5.14-1.54Z"/>
            </g>
          </g>
          <g>
            <circle class="cls-9" cx="868.77" cy="360.2" r="70.98" transform="translate(-.25 719.82) rotate(-45)"/>
            <text class="cls-19" transform="translate(818.4 372.82)"><tspan x="0" y="0">C</tspan><tspan class="cls-22" x="20.95" y="0">L</tspan><tspan x="38.3" y="0">OUD</tspan></text>
          </g>
          <g>
            <circle class="cls-2" cx="1798.19" cy="933.6" r="71.41" transform="translate(-133.48 1544.96) rotate(-45)"/>
            <text class="cls-19" transform="translate(1758.8 946.21)"><tspan x="0" y="0">UI</tspan><tspan class="cls-23" x="34.78" y="0">U</tspan><tspan x="58.36" y="0">X</tspan></text>
          </g>
          <g>
            <circle class="cls-5" cx="387.71" cy="1419.56" r="63.69" transform="translate(-890.22 689.93) rotate(-45)"/>
            <g>
              <path class="cls-10" d="m349.93,1397.11v24.44c0,3.48-.85,6.07-2.54,7.78s-4.47,2.56-8.34,2.56c-1.7,0-3.53-.18-5.5-.53v-6.65c1.61.27,3,.4,4.15.4,1.02,0,1.82-.18,2.41-.54s1.01-.8,1.29-1.32.41-1.42.41-2.71v-23.44h8.13Z"/>
              <path class="cls-10" d="m372.85,1397.11l10.89,34.25h-8.76l-2.14-7.05h-11.24l-2.18,7.05h-7.14l11.15-34.25h9.43Zm-9.3,20.88h7.37l-3.65-12.02-3.72,12.02Z"/>
              <path class="cls-10" d="m411.66,1397.11l-10.51,34.25h-8.76l-10.45-34.25h8.67l6.96,24.49,7.25-24.49h6.83Z"/>
              <path class="cls-10" d="m430.28,1397.11l10.89,34.25h-8.76l-2.14-7.05h-11.24l-2.18,7.05h-7.14l11.15-34.25h9.43Zm-9.3,20.88h7.37l-3.65-12.02-3.72,12.02Z"/>
            </g>
          </g>
          <g>
            <circle class="cls-9" cx="1585.08" cy="1016.99" r="66.03"/>
            <text class="cls-20" transform="translate(1551.1 1034.08)"><tspan x="0" y="0">GIT</tspan></text>
          </g>
        </g>
        <path class="cls-9" d="m321.73,551.87l-1.64-.13c.27-3.27.61-6.57,1.01-9.83l1.63.2c-.4,3.23-.74,6.52-1,9.76Zm2.97-22.68l-1.62-.29c.58-3.22,1.24-6.47,1.95-9.68l1.6.36c-.71,3.18-1.36,6.42-1.94,9.61Zm5.12-22.3l-1.58-.44c.88-3.13,1.83-6.32,2.85-9.46l1.56.5c-1.01,3.12-1.96,6.28-2.83,9.4Zm7.16-21.74l-1.53-.58c1.17-3.06,2.41-6.15,3.69-9.17l1.51.64c-1.27,3-2.51,6.06-3.66,9.11Zm9.08-21.03l-1.48-.72c1.43-2.94,2.93-5.91,4.47-8.81l1.45.77c-1.53,2.89-3.03,5.83-4.45,8.76Zm10.86-20.17l-1.41-.84c1.68-2.82,3.43-5.65,5.2-8.4l1.38.89c-1.76,2.74-3.5,5.55-5.17,8.35Zm12.52-19.19l-1.34-.95c1.91-2.68,3.89-5.35,5.88-7.94l1.3,1c-1.98,2.58-3.95,5.23-5.85,7.89Zm14.06-18.09l-1.25-1.06c2.12-2.51,4.31-5.01,6.51-7.43l1.22,1.1c-2.19,2.41-4.36,4.9-6.47,7.39Zm15.49-16.88l-1.16-1.16c2.31-2.32,4.7-4.63,7.09-6.87l1.12,1.2c-2.38,2.23-4.75,4.53-7.05,6.84Zm197.89-1.41c-3.28,0-6.63-.41-9.95-1.2l.38-1.6c3.19.76,6.41,1.15,9.57,1.15v1.64Zm13.14-2.42l-.61-1.52c3.04-1.22,5.75-2.91,8.06-5.02l1.11,1.21c-2.46,2.25-5.34,4.04-8.56,5.34Zm-35.46-3.74c-2.95-1.74-5.64-3.78-7.97-6.08l1.15-1.17c2.24,2.2,4.82,4.16,7.66,5.83l-.83,1.42Zm-158.76-7.99l-1.06-1.25c2.49-2.12,5.06-4.23,7.63-6.27l1.02,1.29c-2.55,2.02-5.11,4.12-7.58,6.23Zm210.2-4.76l-1.54-.57c1.09-2.94,1.7-6.09,1.82-9.37l1.64.06c-.13,3.46-.77,6.78-1.92,9.88Zm-67.01-4.32c-.17-.39-.33-.79-.48-1.19-1.04-2.72-1.8-5.56-2.26-8.45l1.62-.26c.45,2.78,1.18,5.51,2.17,8.13.15.38.3.76.46,1.14l-1.51.64Zm-125.15-5.03l-.96-1.33c2.67-1.92,5.41-3.81,8.12-5.61l.91,1.37c-2.7,1.79-5.42,3.67-8.08,5.58Zm19.15-12.55l-.84-1.41c2.81-1.68,5.7-3.33,8.57-4.9l.79,1.44c-2.86,1.56-5.73,3.2-8.52,4.87Zm171.46-.68c-.96-3.01-2.29-5.98-3.93-8.81l1.42-.83c1.71,2.94,3.08,6.01,4.08,9.14l-1.56.5Zm-66.73-4.48l-1.63-.21c.42-3.23,1.17-6.51,2.24-9.74l1.56.51c-1.03,3.13-1.76,6.31-2.17,9.44Zm-84.58-5.7l-.71-1.48c2.96-1.43,5.98-2.82,8.97-4.13l.66,1.5c-2.97,1.3-5.97,2.68-8.91,4.1Zm139.44-8.77c-2.29-2.21-4.77-4.13-7.37-5.72l-.27-.16.84-1.41.28.17c2.7,1.65,5.28,3.65,7.65,5.93l-1.14,1.18Zm-118.4-.27l-.58-1.54c3.07-1.16,6.2-2.27,9.31-3.3l.52,1.56c-3.09,1.03-6.21,2.13-9.25,3.28Zm71.1-6.46l-1.41-.84c1.53-2.57,3.26-5.08,5.16-7.46-2.59-.05-5.23,0-7.98.11l-.07-1.64c3.43-.16,6.68-.18,9.91-.07l-.06,1.64c-.11,0-.22,0-.33-.01l.37.3c-2.07,2.52-3.95,5.2-5.58,7.96Zm-49.32-.6l-.43-1.58c3.18-.87,6.4-1.68,9.59-2.41l.37,1.6c-3.16.73-6.37,1.53-9.52,2.39Zm77.22-3.9c-2.97-.98-6.14-1.78-9.43-2.38l.29-1.61c3.36.61,6.6,1.43,9.65,2.44l-.52,1.56Zm-54.87-1.06l-.28-1.62c2.41-.41,4.86-.79,7.29-1.13.83-.11,1.66-.23,2.5-.33l.21,1.63c-.83.11-1.65.22-2.48.33-2.41.34-4.85.71-7.24,1.12Zm41.69-11.56l-1.04-1.27c2.59-2.13,5.34-4.06,8.16-5.72l.83,1.41c-2.75,1.62-5.43,3.49-7.95,5.57Zm164.07-5.22c-2.73,0-5.58-.08-8.45-.22l.08-1.64c2.85.15,5.67.22,8.37.22h1.42s.02,1.63.02,1.63h-1.44Zm-21.59-1.33c-3.09-.35-6.29-.78-9.79-1.29l.24-1.62c3.48.51,6.67.93,9.74,1.28l-.19,1.63Zm-22.77-3.39c-2.83-.49-5.67-.99-8.5-1.49l-1.2-.21.29-1.62,1.2.21c2.83.5,5.66,1,8.49,1.49l-.28,1.62Zm-100.03-1.19l-.58-1.53c3.03-1.15,6.21-2.15,9.47-3l.41,1.59c-3.2.83-6.33,1.82-9.3,2.94Zm77.4-2.75c-3.54-.58-6.72-1.07-9.72-1.49l.23-1.63c3.01.42,6.2.91,9.75,1.49l-.27,1.62Zm-55.31-2.63l-.21-1.63c3.17-.41,6.49-.7,9.87-.87l.08,1.64c-3.34.17-6.62.46-9.75.86Zm32.59-.34c-3.35-.29-6.64-.49-9.79-.6l.06-1.64c3.18.11,6.5.31,9.87.6l-.14,1.64Z"/>
        <path class="cls-9" d="m1541.85,548.08l-.95-1.34c2.62-1.87,5.19-3.92,7.63-6.08l1.09,1.23c-2.48,2.2-5.1,4.28-7.76,6.19Zm17.04-15.62l-1.24-1.07c2.11-2.44,4.13-5.04,6.01-7.7l1.34.95c-1.91,2.71-3.96,5.34-6.1,7.83Zm13.03-19.09l-1.45-.77c1.52-2.85,2.93-5.82,4.19-8.83l1.51.64c-1.28,3.05-2.71,6.06-4.26,8.96Zm8.63-21.44l-1.58-.45c.89-3.14,1.64-6.34,2.23-9.51l1.61.3c-.6,3.23-1.36,6.48-2.26,9.66Zm3.86-22.79l-1.64-.09c.11-1.9.16-3.83.16-5.74,0-1.34-.03-2.68-.08-4.02l1.64-.07c.06,1.36.08,2.73.08,4.09,0,1.94-.06,3.9-.17,5.83Zm-2.97-22.79c-.58-3.2-1.33-6.4-2.24-9.49l1.58-.46c.93,3.15,1.69,6.41,2.28,9.67l-1.61.29Zm-6.8-21.67c-1.34-2.92-2.87-5.83-4.54-8.64l1.41-.84c1.7,2.86,3.25,5.82,4.61,8.79l-1.49.69Zm-11.91-19.36c-2-2.53-4.16-5.01-6.42-7.36l1.18-1.14c2.29,2.39,4.48,4.91,6.52,7.48l-1.29,1.02Zm-16-16.18c-2.52-2.05-5.16-4-7.86-5.81l.91-1.36c2.74,1.84,5.42,3.82,7.98,5.9l-1.04,1.27Zm-19.09-12.39c-2.91-1.47-5.9-2.82-8.91-4.01l.6-1.53c3.05,1.21,6.1,2.58,9.05,4.07l-.74,1.46Zm-21.29-8.02c-3.16-.8-6.38-1.46-9.57-1.94l.24-1.62c3.25.49,6.52,1.15,9.73,1.97l-.4,1.59Zm-32.28-2.57l-.16-1.63c2.93-.29,5.93-.43,8.91-.43h1.02s-.02,1.65-.02,1.65h-1c-2.92,0-5.87.14-8.75.42Z"/>
        <path class="cls-9" d="m1760.34,1032.14c-1.48,0-2.96-.01-4.45-.04l.03-1.64c3.28.06,6.55.05,9.81-.02l.04,1.64c-1.81.04-3.62.06-5.43.06Zm-17.61-.61c-3.19-.21-6.51-.48-9.84-.8l.16-1.63c3.32.32,6.61.59,9.79.8l-.11,1.64Zm36.2-.18l-.14-1.64c3.29-.29,6.56-.67,9.74-1.12l.23,1.62c-3.2.46-6.51.84-9.83,1.13Zm-59.11-2.1c-3.26-.42-6.52-.88-9.77-1.36l.24-1.62c3.24.48,6.49.94,9.74,1.36l-.21,1.63Zm81.92-1.4l-.36-1.6c3.2-.72,6.39-1.55,9.48-2.46l.46,1.57c-3.13.92-6.35,1.76-9.58,2.49Zm-104.67-2.02c-3.24-.55-6.48-1.11-9.71-1.68l.29-1.62c3.23.57,6.46,1.13,9.7,1.68l-.27,1.62Zm126.71-4.92l-.64-1.51c2.98-1.26,5.96-2.67,8.84-4.18l.76,1.45c-2.93,1.53-5.94,2.96-8.96,4.24Zm20.33-11l-.91-1.36c2.7-1.81,5.36-3.75,7.9-5.77l1.02,1.28c-2.57,2.05-5.27,4.01-8,5.85Zm17.87-14.64l-1.16-1.16c2.32-2.32,4.55-4.74,6.61-7.19l1.26,1.05c-2.09,2.5-4.35,4.95-6.71,7.3Zm14.56-17.94l-1.38-.89c1.78-2.77,3.4-5.62,4.83-8.47l1.47.74c-1.45,2.9-3.11,5.8-4.91,8.62Zm9.92-20.87l-1.56-.5c1-3.11,1.79-6.29,2.37-9.44l1.61.3c-.59,3.22-1.41,6.46-2.42,9.64Zm2-22.84c0-3.22-.22-6.42-.65-9.57l1.61-.36.02.14c.44,3.23.67,6.5.67,9.74l-1.64.06Zm-3.57-22.34c-.98-3.03-2.18-6.08-3.56-9.05l1.49-.69c1.41,3.03,2.64,6.14,3.63,9.24l-1.56.5Zm-9.91-20.39c-1.74-2.65-3.69-5.3-5.77-7.89l1.28-1.03c2.11,2.62,4.09,5.32,5.86,8.01l-1.37.9Zm-14.51-17.56c-2.25-2.24-4.67-4.48-7.19-6.66l1.07-1.24c2.55,2.2,4.99,4.47,7.28,6.73l-1.16,1.16Zm-17.43-14.78c-2.57-1.88-5.28-3.76-8.07-5.58l.9-1.37c2.81,1.84,5.55,3.73,8.14,5.63l-.97,1.32Zm-19.23-12.39c-2.79-1.59-5.7-3.16-8.63-4.67l.75-1.46c2.95,1.52,5.88,3.1,8.69,4.7l-.81,1.43Zm-20.38-10.47c-2.96-1.41-5.93-2.8-8.91-4.17l.69-1.49c2.99,1.38,5.97,2.77,8.93,4.18l-.71,1.48Zm-20.85-9.65c-2.99-1.37-5.97-2.75-8.95-4.14l.7-1.49c2.97,1.39,5.95,2.76,8.93,4.13l-.68,1.49Zm-20.79-9.85c-3.14-1.56-6.01-3.05-8.77-4.53l.77-1.45c2.75,1.47,5.61,2.95,8.73,4.51l-.73,1.47Zm-20.22-11.04c-2.89-1.75-5.69-3.54-8.33-5.34l.92-1.36c2.62,1.77,5.39,3.55,8.25,5.29l-.85,1.4Zm-18.94-13.18c-2.6-2.1-5.12-4.28-7.48-6.49l1.12-1.2c2.34,2.18,4.82,4.34,7.39,6.41l-1.03,1.28Zm-16.5-16.18c-2.06-2.55-4.03-5.25-5.85-8.02l1.37-.9c1.79,2.73,3.73,5.38,5.76,7.89l-1.28,1.03Zm-12.38-19.53c-1.45-2.99-2.75-6.06-3.87-9.14l1.54-.56c1.1,3.03,2.38,6.05,3.81,8.99l-1.48.71Zm-7.51-21.87c-.68-3.29-1.16-6.6-1.42-9.84l1.64-.13c.25,3.17.72,6.41,1.39,9.64l-1.61.33Zm.38-22.92l-1.63-.18c.37-3.36,1.01-6.65,1.89-9.79l1.58.44c-.86,3.05-1.47,6.26-1.84,9.53Zm6.79-21.44l-1.43-.81c1.64-2.88,3.56-5.64,5.72-8.18l1.25,1.06c-2.09,2.47-3.96,5.14-5.55,7.93Z"/>
        <path class="cls-9" d="m382.71,1180.93c-3.22-.57-6.47-1.27-9.69-2.07l.4-1.59c3.17.8,6.39,1.49,9.57,2.05l-.28,1.62Zm-22.33-5.87c-3.08-1.08-6.19-2.29-9.23-3.59l.64-1.51c3.01,1.29,6.08,2.48,9.13,3.55l-.54,1.55Zm-21.12-9.31c-2.89-1.55-5.78-3.22-8.57-4.95l.87-1.39c2.77,1.72,5.62,3.37,8.48,4.9l-.77,1.45Zm-19.47-12.4c-2.63-1.97-5.24-4.04-7.74-6.18l1.06-1.25c2.48,2.11,5.05,4.17,7.66,6.11l-.98,1.32Zm-17.41-15.15c-2.32-2.35-4.58-4.79-6.73-7.26l1.24-1.07c2.12,2.44,4.36,4.86,6.66,7.19l-1.17,1.15Zm-14.93-17.6c-1.93-2.67-3.79-5.43-5.53-8.21l1.39-.87c1.72,2.75,3.56,5.48,5.47,8.12l-1.33.96Zm-12.01-19.72c-1.48-2.95-2.87-5.97-4.13-9l1.52-.63c1.24,2.99,2.62,5.98,4.08,8.89l-1.47.74Z"/>
        <path class="cls-9" d="m1240.41,562.83l-1.62-.26c.52-3.24.99-6.51,1.39-9.72l1.63.2c-.4,3.23-.88,6.52-1.4,9.78Zm2.72-22.88l-1.64-.12c.25-3.3.43-6.6.53-9.8l1.64.06c-.11,3.23-.29,6.55-.54,9.87Zm-1.04-23c-.08-3.3-.24-6.6-.48-9.8l1.64-.12c.24,3.22.4,6.55.48,9.88l-1.64.04Zm-1.87-22.79c-.46-3.25-1.02-6.5-1.65-9.66l1.61-.32c.64,3.19,1.2,6.47,1.67,9.75l-1.62.23Zm-4.72-22.36c-.86-3.03-1.82-6.05-2.85-8.98l-.12-.35,1.55-.54.12.34c1.04,2.97,2.01,6.03,2.88,9.09l-1.58.45Zm-7.9-21.42c-1.36-2.94-2.85-5.88-4.42-8.74l1.44-.79c1.59,2.88,3.09,5.86,4.47,8.84l-1.49.69Zm-11.25-19.85c-1.84-2.69-3.8-5.34-5.81-7.87l1.28-1.02c2.04,2.56,4.02,5.24,5.89,7.97l-1.35.93Zm-14.46-17.63c-2.3-2.34-4.7-4.58-7.14-6.68l1.07-1.24c2.47,2.13,4.9,4.41,7.23,6.78l-1.17,1.15Zm-121.48-1.78c-1.48,0-2.96-.11-4.39-.32l.24-1.62c3.05.45,6.31.39,9.54-.18l.29,1.62c-1.9.34-3.81.51-5.68.51Zm18.18-5.23l-.84-1.41c2.78-1.66,5.32-3.67,7.54-5.95l1.18,1.14c-2.32,2.39-4.97,4.48-7.88,6.22Zm-28.21-1l-1.17-1.16c2.31-2.33,4.83-4.54,7.47-6.57l1,1.3c-2.59,1.99-5.04,4.15-7.31,6.43Zm114.04-6.61c-2.7-1.83-5.51-3.55-8.33-5.1l.79-1.44c2.87,1.58,5.71,3.32,8.46,5.18l-.92,1.36Zm-95.8-6.82l-.77-1.45c2.89-1.53,5.93-2.92,9.04-4.12l.59,1.53c-3.05,1.18-6.04,2.54-8.87,4.04Zm25.18-2.97l-1.52-.61c.09-.22.17-.43.25-.65.52-1.42.96-2.88,1.3-4.36-1.31.24-2.61.5-3.9.79l-.36-1.6c1.52-.34,3.06-.65,4.62-.92.16-.85.28-1.71.38-2.58l1.63.18c-.08.71-.18,1.42-.29,2.12,1.15-.18,2.3-.33,3.46-.47l.19,1.63c-1.32.15-2.65.34-3.97.55-.38,1.79-.89,3.54-1.51,5.23-.08.23-.17.46-.27.69Zm50.5-.83c-3.07-1.2-6.15-2.21-9.26-3.05l.43-1.59c3.17.86,6.3,1.88,9.31,3.06l-.17.81-.31.76Zm-22.02-5.55c-3.21-.4-6.49-.64-9.73-.71l.04-1.64c3.3.07,6.64.31,9.9.72l-.2,1.63Zm-28.32-16.37c-.63-3.11-1.59-6.22-2.87-9.23l1.51-.64c1.32,3.12,2.32,6.33,2.96,9.55l-1.61.32Zm-9.35-20.38c-1.98-2.59-4.19-4.98-6.57-7.1l1.09-1.23c2.46,2.19,4.75,4.66,6.79,7.33l-1.31,1Zm-115.49-12.2l-.46-1.58c3.15-.92,6.3-1.84,9.47-2.74l.45,1.58c-3.16.9-6.31,1.82-9.45,2.74Zm98.34-2.32c-2.78-1.53-5.75-2.88-8.84-4.04l.57-1.54c3.17,1.18,6.21,2.57,9.06,4.13l-.79,1.44Zm-76.23-3.83l-.4-1.59c3.41-.85,6.56-1.57,9.63-2.21l.33,1.61c-3.05.63-6.18,1.34-9.57,2.19Zm54.88-3.68c-3.12-.6-6.38-1.04-9.67-1.31l.13-1.64c3.35.27,6.66.72,9.84,1.34l-.31,1.61Zm-32.43-.67l-.2-1.63c3.37-.42,6.69-.71,9.87-.86l.08,1.64c-3.14.15-6.42.43-9.75.85Z"/>
      </g>
    </g>
  </g>
</svg>