<svg xmlns="http://www.w3.org/2000/svg" version="1.1" xmlns:xlink="http://www.w3.org/1999/xlink" xmlns:svgjs="http://svgjs.dev/svgjs" width="1440" height="560" preserveAspectRatio="none" viewBox="0 0 1440 560">
    <g mask="url(&quot;#SvgjsMask1018&quot;)" fill="none">
        <path d="M -684.1189756533174,470 C -588.12,421.6 -396.12,241 -204.11897565331748,228 C -12.12,215 83.88,401.4 275.8810243466825,405 C 467.88,408.6 563.88,237.8 755.8810243466826,246 C 947.88,254.2 1099.06,482.8 1235.8810243466826,446 C 1372.7,409.2 1399.18,138.8 1440,62" stroke="rgba(51, 121, 194, 0.58)" stroke-width="2"></path>
        <path d="M -745.078247603587,270 C -649.08,296 -457.08,440 -265.07824760358693,400 C -73.08,360 22.92,50.8 214.92175239641307,70 C 406.92,89.2 502.92,478.4 694.921752396413,496 C 886.92,513.6 1025.91,199.4 1174.921752396413,158 C 1323.94,116.6 1386.98,262.8 1440,289" stroke="rgba(51, 121, 194, 0.58)" stroke-width="2"></path>
        <path d="M -397.37962511385695,153 C -301.38,196.4 -109.38,345 82.62037488614308,370 C 274.62,395 370.62,253.4 562.620374886143,278 C 754.62,302.6 850.62,535.2 1042.620374886143,493 C 1234.62,450.8 1443.14,79.2 1522.620374886143,67 C 1602.1,54.8 1456.52,359 1440,432" stroke="rgba(51, 121, 194, 0.58)" stroke-width="2"></path>
    </g>
    <defs>
        <mask id="SvgjsMask1018">
            <rect width="1440" height="560" fill="#ffffff"></rect>
        </mask>
    </defs>
</svg>