<?xml version="1.0" encoding="UTF-8"?>
<svg id="Layer_1" data-name="Layer 1" xmlns="http://www.w3.org/2000/svg" viewBox="0 0 1080 1080">
  <defs>
    <style>
      .cls-1 {
        fill: #00a9ff;
        stroke-width: 0px;
      }
    </style>
  </defs>
  <path class="cls-1" d="m1021.87,257.08c-7.95-62.88-43.54-105.59-101.37-129.57-53.09-22.03-108.79-23.8-165.11-18.01-1.57.16-4.33-.74-4.45,2.27,7.88,1.55,15.69,2.76,23.35,4.63,42.13,10.26,80.06,28.52,109.79,60.87,19.84,21.59,30.79,46.41,21.43,76.42-5,15.96-14.3,29.49-25.47,41.69-33.23,36.28-74.59,61.01-118.08,82.74-6.05,3.03-6.97-1.39-8.76-4.91-11.45-22.43-22.48-45.09-34.32-67.31-36.15-67.8-74.13-134.48-120.14-196.23-25.95-34.82-57.18-63.53-96.83-82.17-36.17-16.99-73.34-18.75-111.01-5.56-33.3,11.66-60.83,32.39-85.59,56.98-49.91,49.61-85.75,108.81-116.41,171.51-3.59,7.58-1.01,1.82-3.87,8.48h-.02c-.63,1.34-1.02,2.63.35,3.35,1.42.76,2.21-.39,3.34-1.43,12.24-13.71,74.31-87.72,118.29-110.36,39.27-20.21,80.57-26.14,123.55-14.27,44.61,12.31,79.18,39.72,108.42,74.47,51.21,60.87,96.57,125.93,137.64,194.03,3.99,6.61,3.34,9.04-4.06,11.49-37.01,12.16-73.99,24.47-110.71,37.45-8.69,3.08-13.23,2.11-16.71-6.65-2.13-5.35-6.14-9.94-9.41-14.8-64.71-95.72-183.93-113.07-274.16-58.41-28.24,17.1-49.28,41.18-67.75,67.89-47.02,68.03-60.99,140.42-28.45,218.8,1.72,4.15,1.25,6.83-1.86,10.08-16.24,16.99-30.31,35.73-43.31,55.28-27.32,41.01-50.23,84.06-59.22,133.16-7.46,40.67-4.66,80.36,16.68,116.66,32.83,55.84,84.09,83.42,146.97,90.13,48.85,5.21,93.89-10.77,137.29-30.66,50.17-22.98,91.71-57.32,125.21-101.23,3.45-4.52,6.14-5.47,11.45-2.59,14.94,8.09,30.28,15.43,45.42,23.1,60.13,30.45,122.69,54.04,188.98,67.08,37.23,7.32,74.64,12.54,112.54,5.77,36.86-6.56,65.74-24.3,80.52-60.32,11-26.83,11.08-54.87,7.86-83.12-5.07-44.53-19.67-86.78-31.56-129.62-26.3-94.77-61.24-186.48-100.81-276.43-3.15-7.2-2.18-9.87,5.22-12.54,23.7-8.57,46.76-18.7,69.31-30.01,40.04-20.09,78.08-43.05,108.53-76.6,26.04-28.73,42.29-61.87,37.28-101.51Zm-751.38,312.6c5.45-38.63,25.14-66.69,61.71-81.89,3.48-1.46,7.25-2.36,10.98-2.97,4.89-.81,9.87-1.07,14.81-1.58,21.64.26,40.48,8.25,58.07,20.11,5.54,3.73,3.36,5.22-1.23,7.23-44.84,19.49-88.46,41.43-130.71,66.02-.51.3-1,.63-1.55.84-4.01,1.53-7.71,7.56-11.14,5.35-3.57-2.34-1.58-8.71-.95-13.11Zm136.82,319.5c-30.49,45.35-71.74,71.57-127.49,71.62-60.29.07-100.15-40.08-100.24-108.35-.25-32.58,17.26-66.13,40.78-97.41,3.52-4.68,5.68-3.06,8.78.23,12.44,13.23,24.79,26.62,38.9,38.07,36.52,29.61,77.2,52.99,117.64,76.63,6.32,3.69,12.65,7.41,19.14,10.73,4.17,2.13,5.66,3.78,2.5,8.48Zm58.92-113.37c-1.94,5.4-3.99,4.87-7.99,2.46-33.39-20.09-66.02-41.36-97.87-63.83-16.01-11.31-31.9-22.8-45.81-36.79-4.01-4.03-4.68-6.26.56-9.9,48.5-33.67,99.77-62.4,153.39-87.07,5.03-2.3,6.44-.47,8.2,3.75,7.62,18.31,13.04,47.94,12.98,82.83-.4,31.17-9.73,70.26-23.47,108.55Zm340.17-11.73c.63,7.28.97,14.6,1.39,21.29-.26,25.14-2.13,49.17-16.04,70.65-13.46,20.74-34.08,28.46-56.84,32.62-28.54,5.22-55.15-2.89-81.51-12.21-34.59-12.23-67.5-28.25-100.28-44.58-5.45-2.71-6.03-5.45-4.01-10.89,22.85-61.42,34.75-125.05,38.32-190.39,1.6-29.17-.9-57.95-6.83-86.43-1.27-6.05-.58-8.64,5.79-10.71,43.74-14.23,88.9-23.47,132.56-37.93,5.63-1.86,7.23,1.51,9.08,5.4,21.48,45.04,39.44,91.41,52.97,139.46,11.42,40.62,21.81,81.49,25.4,123.73Z"/>
</svg>